<svg width="42" height="42" viewBox="0 0 42 42" fill="none" xmlns="http://www.w3.org/2000/svg">
<rect width="42" height="42" rx="13" fill="#512711"/>
<path d="M17.1667 11.3333C17.1667 9.49239 18.659 8 20.5 8C22.3409 8 23.8333 9.49238 23.8333 11.3333V29.6667C23.8333 31.5076 22.3409 33 20.5 33C18.659 33 17.1667 31.5076 17.1667 29.6667V11.3333Z" fill="#D9D9D9"/>
<path d="M29.6667 17.1667C31.5076 17.1667 33 18.659 33 20.5C33 22.3409 31.5076 23.8333 29.6667 23.8333L11.3333 23.8333C9.49239 23.8333 8 22.3409 8 20.5C8 18.659 9.49238 17.1667 11.3333 17.1667H29.6667Z" fill="#D9D9D9"/>
</svg>
